# xmcd
#
# Track frame offsets:
#	150
#	19031
#	37377
#	61785
#	76724
#	96624
#	121606
#	135560
#	154153
#	172625
#	193487
#	203967
#	224919
#	246153
#
# Disc length: 3572 seconds
#
# Revision: 0
# Processed by: cddbd v1.5.2PL0 Copyright (c) Steve Scherf et al.
# Submitted via: EasyCDDAExtractor 4.6.0.1
#
DISCID=c70df20e
DTITLE=Dwight Yoakam - Live From Austin Texas
DYEAR=2005
DGENRE=Country
TTITLE0=Guitars, Cadillacs
TTITLE1=Smoke Along The Track
TTITLE2=What I Don't Know
TTITLE3=Home Of The Blues
TTITLE4=Miles
TTITLE5=Please, Please Baby
TTITLE6=Little Ways
TTITLE7=Honky Tonk Man
TTITLE8=Streets Of Bakersfield
TTITLE9=Buenos Noches From A Lonely Room
TTITLE10=Always Late With Your Kisses
TTITLE11=Little Sister
TTITLE12=I Sang Dixie
TTITLE13=This Drinkin' Will Kill Me
EXTD=
EXTT0=
EXTT1=
EXTT2=
EXTT3=
EXTT4=
EXTT5=
EXTT6=
EXTT7=
EXTT8=
EXTT9=
EXTT10=
EXTT11=
EXTT12=
EXTT13=
PLAYORDER=
